<svg xmlns="http://www.w3.org/2000/svg" viewBox="0 0 64 64" fill="none">
  <!-- Shuttlecock -->
  <g>
    <!-- Feathers -->
    <path d="M32 8 L28 20 L24 18 L32 8 Z" fill="#FFFFFF" stroke="#2563EB" stroke-width="1.5"/>
    <path d="M32 8 L36 20 L40 18 L32 8 Z" fill="#FFFFFF" stroke="#2563EB" stroke-width="1.5"/>
    <path d="M32 8 L30 20 L26 19 L32 8 Z" fill="#E5E7EB" stroke="#2563EB" stroke-width="1.5"/>
    <path d="M32 8 L34 20 L38 19 L32 8 Z" fill="#E5E7EB" stroke="#2563EB" stroke-width="1.5"/>
    
    <!-- Cork base -->
    <circle cx="32" cy="22" r="4" fill="#DC2626"/>
    <ellipse cx="32" cy="22" rx="4" ry="2" fill="#B91C1C"/>
  </g>
  
  <!-- Racket -->
  <g transform="translate(10, 28)">
    <!-- Racket head -->
    <ellipse cx="20" cy="12" rx="10" ry="12" fill="none" stroke="#1E40AF" stroke-width="2.5"/>
    
    <!-- Strings -->
    <line x1="14" y1="6" x2="14" y2="18" stroke="#60A5FA" stroke-width="0.5" opacity="0.6"/>
    <line x1="17" y1="4" x2="17" y2="20" stroke="#60A5FA" stroke-width="0.5" opacity="0.6"/>
    <line x1="20" y1="2" x2="20" y2="22" stroke="#60A5FA" stroke-width="0.5" opacity="0.6"/>
    <line x1="23" y1="4" x2="23" y2="20" stroke="#60A5FA" stroke-width="0.5" opacity="0.6"/>
    <line x1="26" y1="6" x2="26" y2="18" stroke="#60A5FA" stroke-width="0.5" opacity="0.6"/>
    
    <line x1="12" y1="8" x2="28" y2="8" stroke="#60A5FA" stroke-width="0.5" opacity="0.6"/>
    <line x1="11" y1="12" x2="29" y2="12" stroke="#60A5FA" stroke-width="0.5" opacity="0.6"/>
    <line x1="12" y1="16" x2="28" y2="16" stroke="#60A5FA" stroke-width="0.5" opacity="0.6"/>
    
    <!-- Handle -->
    <rect x="18.5" y="23" width="3" height="12" rx="1.5" fill="#4B5563"/>
    <rect x="18.5" y="30" width="3" height="1" fill="#9CA3AF"/>
  </g>
</svg>
